<?xml version="1.0" encoding="utf-8"?>
<!-- Generator: Adobe Illustrator 18.1.1, SVG Export Plug-In . SVG Version: 6.00 Build 0)  -->
<svg version="1.1" id="Layer_1" xmlns="http://www.w3.org/2000/svg" xmlns:xlink="http://www.w3.org/1999/xlink" x="0px" y="0px"
	 viewBox="-94 77.2 110.6 97.8" enable-background="new -94 77.2 110.6 97.8" xml:space="preserve">
<g opacity="0.3">
	<path fill="#555555" d="M16.6,144.9c-0.6-14-11.2-25-25-25h-0.2V91.5c0-8.3-10.3-14.3-24.5-14.3c-14.2,0-24.5,6-24.5,14.3v23
		c-3.5-1.1-7.5-1.7-12-1.7c-14.2,0-24.5,6-24.5,14.3v29.6c0,8.3,10.3,14.4,24.5,14.4c10.6,0,19.1-3.4,22.6-8.6
		c3.9,1.5,8.6,2.3,13.8,2.3c1.5,0,3-0.1,4.4-0.2c4.6,6.3,11.9,10.3,20.2,10.3c13.8,0,24.8-11.2,25-25
		C16.6,148.7,16.6,146.1,16.6,144.9z M-11.8,125c0.6-0.2,1.3-0.2,1.9-0.2l1,0c0.1,0,0.2,0,0.2,0c0.1,0,0.2,0,0.3,0l0.5,0l1.9,0.1
		c0.6,0,1.3,0.2,1.9,0.3c1.3,0.2,2.5,0.7,3.7,1.1c0.5,0.3,1.1,0.5,1.6,0.8c0,0,0.1,0,0.1,0.1c0.5,0.2,1,0.5,1.4,0.8
		c0.5,0.3,0.9,0.6,1.4,0.9c0.4,0.3,0.8,0.7,1.2,1c0.3,0.3,0.7,0.6,1,0.9c0.3,0.3,0.6,0.6,0.8,0.9c0.5,0.6,1,1.1,1.3,1.6
		c0.6,0.8,0.9,1.8,1,1.9c-0.1-0.1-0.5-0.6-1.2-1.3c-0.4-0.4-0.8-0.9-1.5-1.4c-0.6-0.5-1.2-1.1-2-1.6c-0.4-0.3-0.8-0.6-1.2-0.8
		c-0.4-0.2-0.9-0.5-1.4-0.8c-0.5-0.3-1-0.5-1.5-0.7c-0.5-0.2-1-0.4-1.6-0.7c-1.1-0.3-2.3-0.7-3.4-0.9c-0.6-0.1-1.2-0.3-1.8-0.3
		l-1.9-0.1l-0.5,0c0,0-0.1,0-0.2,0c-0.1,0-0.2,0-0.2,0l-0.9,0c-0.6,0-1.2,0-1.8,0.2c-0.6,0.1-1.2,0.2-1.8,0.3
		c-0.3,0.1-0.7,0.2-1,0.3c-0.2,0.1-0.5,0.1-0.7,0.2c-0.2,0-0.3,0.1-0.4,0.1c-0.4,0.1-0.8,0.3-1.2,0.5c-0.5,0.2-1,0.3-1.5,0.6
		c-0.5,0.2-0.9,0.5-1.4,0.7c-0.5,0.2-0.9,0.5-1.3,0.8c-0.4,0.3-0.8,0.5-1.2,0.8c-0.3,0.2-0.6,0.5-0.9,0.7c-0.6,0.5-1.1,0.9-1.5,1.3
		c-0.7,0.7-1.2,1.1-1.3,1.2c0.1-0.1,0.4-1,1-1.8c0.3-0.5,0.8-1,1.4-1.5c0.2-0.2,0.3-0.4,0.5-0.5c0.1-0.1,0.2-0.2,0.4-0.4
		c0,0,0,0,0,0h0c0.3-0.3,0.7-0.5,1-0.8c0.2-0.2,0.5-0.4,0.7-0.6c0.3-0.2,0.6-0.4,0.9-0.6c0.3-0.2,0.6-0.4,1-0.6
		c0.5-0.3,1-0.5,1.5-0.8c0.2-0.1,0.5-0.2,0.7-0.3c0.3-0.1,0.6-0.2,0.8-0.3c0,0,0.1,0,0.2,0c0.2-0.1,0.5-0.2,0.7-0.2
		c0.4-0.1,0.7-0.2,1.1-0.4C-13,125.2-12.4,125.1-11.8,125z M-51.9,106c0-0.8,0.2-1.6,0.7-2.4c0.3,0.4,0.6,0.9,1,1.3
		c0.9,0.9,2.1,1.7,3.5,2.4c1.1,0.5,2.3,1,3.7,1.4h0c2.9,0.8,6.2,1.3,9.8,1.3c3.6,0,7-0.5,9.8-1.3h0c1.4-0.4,2.6-0.8,3.7-1.4
		c1.4-0.7,2.7-1.5,3.5-2.4c0.4-0.4,0.8-0.8,1-1.3c0.5,0.8,0.7,1.5,0.7,2.4c0,0.4-0.1,0.9-0.2,1.3v0c-0.3,0.8-0.8,1.6-1.6,2.4
		c-0.5,0.5-1,0.9-1.7,1.3c-1.5,0.9-3.3,1.8-5.5,2.4h0c-2.9,0.8-6.2,1.3-9.8,1.3c-3.6,0-7-0.5-9.8-1.3h0c-2.2-0.6-4-1.4-5.5-2.4
		c-0.6-0.4-1.2-0.9-1.7-1.3c-0.8-0.7-1.3-1.5-1.6-2.4v0C-51.8,106.9-51.9,106.4-51.9,106z M-51.9,98.6c0-0.8,0.2-1.6,0.7-2.4
		c0.3,0.5,0.7,0.9,1.1,1.3c0.9,0.9,2.1,1.7,3.6,2.4c1.1,0.5,2.2,0.9,3.5,1.3h0c2.9,0.8,6.2,1.3,9.8,1.3c3.6,0,7-0.5,9.8-1.3h0
		c1.3-0.4,2.5-0.8,3.5-1.3c1.5-0.7,2.7-1.5,3.6-2.4c0.4-0.4,0.8-0.9,1.1-1.3c0.5,0.8,0.7,1.5,0.7,2.4c0,0.5-0.1,0.9-0.2,1.3
		c-0.3,0.8-0.8,1.6-1.6,2.4c-0.5,0.4-1,0.9-1.6,1.3c-1.5,0.9-3.3,1.8-5.5,2.4h0c-2.9,0.8-6.2,1.3-9.8,1.3c-3.6,0-7-0.5-9.8-1.3h0
		c-2.2-0.6-4-1.4-5.5-2.4c-0.6-0.4-1.2-0.8-1.6-1.3c-0.8-0.7-1.3-1.5-1.6-2.4C-51.8,99.5-51.9,99-51.9,98.6z M-33.1,82.5
		c10.4,0,18.8,3.9,18.8,8.7c0,0.5-0.1,0.9-0.2,1.4c-0.3,0.8-0.8,1.6-1.6,2.3v0c-0.5,0.5-1.1,0.9-1.7,1.3c-1.5,1-3.5,1.8-5.7,2.4
		c-2.8,0.8-6,1.2-9.5,1.2c-3.5,0-6.7-0.4-9.5-1.2c-2.2-0.6-4.2-1.4-5.7-2.4c-0.7-0.4-1.3-0.9-1.8-1.3v0c-0.8-0.7-1.3-1.5-1.6-2.3
		c-0.2-0.4-0.2-0.9-0.2-1.4C-51.9,86.3-43.5,82.5-33.1,82.5z M-88.3,134.7c0-0.8,0.2-1.6,0.7-2.4c0.3,0.5,0.6,0.9,1.1,1.3
		c0.9,0.9,2.1,1.7,3.6,2.4c1,0.5,2.2,0.9,3.5,1.3h0c2.9,0.8,6.2,1.3,9.8,1.3c3.6,0,6.9-0.5,9.8-1.3h0c0.8-0.2,1.5-0.4,2.2-0.7
		c0.5-0.2,0.9-0.4,1.4-0.6c1.5-0.7,2.7-1.5,3.6-2.4c0.4-0.4,0.8-0.8,1.1-1.3c0.1,0.2,0.2,0.5,0.4,0.7c0,0.1,0.1,0.1,0.1,0.2
		c0,0,0,0,0,0c0.2,0.4,0.2,0.9,0.2,1.4c0,0.1,0,0.3,0,0.4c0,0.3-0.1,0.6-0.2,0.9c-0.1,0.4-0.3,0.7-0.5,1.1c-0.1,0.2-0.2,0.3-0.3,0.4
		v0c-0.2,0.3-0.5,0.6-0.7,0.8c-0.5,0.4-1,0.9-1.6,1.3h0c-0.9,0.6-2.1,1.2-3.3,1.6c-0.7,0.3-1.4,0.5-2.2,0.7
		c-2.9,0.8-6.2,1.3-9.8,1.3c-3.6,0-6.9-0.5-9.8-1.3c-2.2-0.6-4.1-1.4-5.5-2.4h0c-0.6-0.4-1.2-0.8-1.6-1.3c-0.8-0.7-1.3-1.5-1.6-2.4
		C-88.2,135.6-88.3,135.1-88.3,134.7z M-87.6,139.7c0.3,0.4,0.6,0.9,1,1.3c0.9,0.9,2.1,1.7,3.5,2.4h0c1.1,0.5,2.3,1,3.7,1.3h0
		c2.9,0.8,6.2,1.3,9.8,1.3c3.6,0,6.9-0.5,9.8-1.3h0c0.8-0.2,1.5-0.4,2.2-0.7c0.5-0.2,1-0.4,1.5-0.6h0c1.5-0.7,2.7-1.5,3.5-2.4
		c0.4-0.4,0.8-0.8,1-1.3c0.1,0.2,0.2,0.4,0.3,0.6v0c0,0,0,0,0,0c0.2,0.5,0.4,1.1,0.4,1.7c0,0.1,0,0.3,0,0.4v0c0,0.3-0.1,0.6-0.2,0.8
		v0c-0.1,0.4-0.3,0.7-0.5,1v0c-0.1,0.2-0.2,0.3-0.4,0.5v0c-0.2,0.3-0.4,0.5-0.7,0.8c-0.5,0.5-1,0.9-1.7,1.3h0
		c-0.9,0.6-2.1,1.2-3.3,1.7c-0.7,0.3-1.4,0.5-2.2,0.7h0c-2.9,0.8-6.2,1.3-9.8,1.3c-3.6,0-6.9-0.5-9.8-1.3h0c-2.2-0.6-4-1.4-5.5-2.4
		h0c-0.6-0.4-1.2-0.9-1.7-1.3c-0.7-0.7-1.3-1.5-1.5-2.3v0c-0.1-0.4-0.2-0.8-0.2-1.3C-88.3,141.3-88.1,140.5-87.6,139.7z M-52,159.9
		c-2.7,3.2-9.5,5.5-17.5,5.5c-10.4,0-18.8-3.9-18.8-8.6c0-0.8,0.2-1.6,0.7-2.4c2.2,3.6,9.5,6.3,18.1,6.3c6,0,11.3-1.3,14.7-3.3
		c1.5-0.9,2.7-1.9,3.3-3c0.5,0.8,0.7,1.5,0.7,2.4C-50.8,157.9-51.2,158.9-52,159.9z M-51,150.7c-0.1,0.4-0.3,0.7-0.5,1.1
		c-0.3,0.4-0.6,0.9-1.1,1.3c-0.9,0.9-2.1,1.7-3.6,2.4c-3.4,1.6-8.1,2.5-13.3,2.5c-7.5,0-13.9-2-17-4.9c-0.8-0.7-1.3-1.5-1.6-2.4
		c-0.2-0.4-0.2-0.9-0.2-1.3c0-0.8,0.2-1.6,0.7-2.4c0.3,0.5,0.6,0.9,1.1,1.3c0.9,0.9,2.1,1.7,3.6,2.4c3.4,1.6,8.1,2.6,13.4,2.6
		c4.6,0,8.8-0.8,12-2c0.5-0.2,0.9-0.4,1.4-0.6c1.5-0.7,2.7-1.5,3.6-2.4c0.4-0.4,0.8-0.8,1.1-1.3c0.1,0.2,0.2,0.5,0.4,0.7
		c0,0.1,0.1,0.1,0.1,0.2c0,0,0,0,0,0c0.2,0.4,0.2,0.9,0.2,1.4S-50.8,150.3-51,150.7z M-50.8,127.9c0,0.2-0.1,0.5-0.2,0.7
		c-0.1,0.4-0.3,0.7-0.5,1v0c-0.1,0.1-0.2,0.3-0.3,0.4c-0.2,0.3-0.5,0.6-0.8,0.9c-0.5,0.5-1.1,0.9-1.7,1.3h0c-0.9,0.6-2,1.1-3.2,1.6
		c-0.8,0.3-1.6,0.6-2.5,0.8c-2.8,0.8-6,1.2-9.5,1.2s-6.7-0.4-9.5-1.2c-2.3-0.6-4.2-1.4-5.7-2.4c-0.7-0.4-1.3-0.9-1.8-1.3
		c-0.8-0.7-1.3-1.5-1.6-2.4c-0.2-0.4-0.2-0.9-0.2-1.4c0-4.8,8.4-8.6,18.8-8.6c4.6,0,8.7,0.8,12,2c2.7,1,4.8,2.4,5.9,4
		c0.2,0.3,0.4,0.7,0.6,1c0.1,0.1,0.1,0.2,0.1,0.4v0c0.1,0.4,0.2,0.8,0.2,1.2C-50.8,127.4-50.8,127.6-50.8,127.9z M-48.4,118.3
		L-48.4,118.3c-0.6-0.4-1.2-0.8-1.6-1.3c-0.8-0.7-1.3-1.5-1.6-2.4c-0.2-0.4-0.2-0.9-0.2-1.3c0-0.8,0.2-1.6,0.7-2.4
		c0.3,0.5,0.6,0.9,1.1,1.3c0.9,0.9,2.1,1.7,3.6,2.4c1.1,0.5,2.3,0.9,3.6,1.3h0c2.9,0.8,6.2,1.3,9.8,1.3c3.6,0,6.9-0.5,9.8-1.3h0
		c1.3-0.4,2.5-0.8,3.6-1.3c1.5-0.7,2.7-1.5,3.6-2.4c0.4-0.4,0.8-0.9,1.1-1.3c0.5,0.8,0.7,1.5,0.7,2.4c0,0.5-0.1,0.9-0.2,1.3
		c-0.3,0.8-0.8,1.6-1.6,2.4c-0.5,0.4-1,0.9-1.6,1.3h0c-1.5,1-3.3,1.8-5.5,2.4h0c-2.8,0.8-6.2,1.3-9.8,1.3c-3.6,0-6.9-0.5-9.8-1.3h0
		C-45.1,120-46.9,119.2-48.4,118.3z M-33.1,158.8c-4.5,0-8.7-0.7-12-2v-4.7c3.2,1.2,7.4,2,11.9,2c0.3,1.6,0.7,3.2,1.2,4.7
		C-32.3,158.8-32.7,158.8-33.1,158.8z M-33.5,146.6v3.3c0,0.5,0,0.9,0,1.4c-4.4,0-8.4-0.8-11.6-2v-4.7
		C-41.9,145.8-37.9,146.6-33.5,146.6z M-45,142.1v-4.7c0.7,0.2,1.4,0.5,2.2,0.7h0c2.9,0.8,6.2,1.3,9.8,1.3h0.2
		c-0.2,0.7-0.3,1.4-0.4,2.1c-0.1,0.8-0.2,1.7-0.2,2.6c-3.5,0-6.7-0.5-9.4-1.3h0C-43.6,142.6-44.4,142.3-45,142.1z M-31,134.1
		c-0.4,0.8-0.7,1.6-1,2.5c-0.3,0-0.7,0-1,0c-3.6,0-6.9-0.5-9.8-1.3h0c-0.8-0.2-1.5-0.4-2.2-0.7v-4.7c0.7,0.2,1.4,0.5,2.2,0.7h0
		c2.9,0.8,6.2,1.3,9.8,1.3c1.1,0,2.2,0,3.3-0.1C-30.2,132.5-30.7,133.3-31,134.1z M-33.1,129.3c-3.6,0-6.9-0.5-9.8-1.3h0
		c-0.8-0.2-1.5-0.4-2.2-0.7v-0.2c0-1-0.2-2-0.5-3c-0.2-0.8-0.6-1.5-1-2.2c1.1,0.5,2.3,1,3.6,1.3h0c2.9,0.8,6.2,1.3,9.8,1.3
		c3.6,0,6.9-0.5,9.8-1.3h0c1.4-0.4,2.6-0.8,3.7-1.4c1.4-0.7,2.7-1.5,3.5-2.4c0.4-0.4,0.8-0.8,1-1.3c0.4,0.7,0.7,1.4,0.7,2.2
		c-0.3,0.1-0.5,0.1-0.8,0.2c-1.4,0.4-2.7,0.9-4,1.5c-1,0.5-1.9,1-2.8,1.5c-1.6,1-3.1,2.2-4.4,3.6c-0.5,0.5-1,1.1-1.5,1.6
		C-29.5,129.2-31.2,129.3-33.1,129.3z M-2.4,169L-2.4,169c-1.9,0.6-4,0.9-6.1,0.9c-2.3,0-4.5-0.4-6.5-1.1c-3.1-1.1-5.8-2.8-7.9-5.1
		c-1.5-1.6-2.8-3.4-3.7-5.5c-0.6-1.4-1.1-2.9-1.4-4.5c-0.2-0.9-0.3-1.7-0.3-2.6c0-0.4,0-0.7,0-1.1c0-0.9,0-1.7,0.2-2.6
		c0-0.4,0.1-0.7,0.2-1.1c0.2-0.9,0.4-1.8,0.7-2.7c0.2-0.6,0.4-1.1,0.6-1.6c0.6-1.3,1.2-2.5,2-3.6c0.2-0.2,0.3-0.4,0.5-0.6
		c0.6-0.8,1.2-1.5,1.9-2.2c0.3-0.3,0.7-0.6,1-0.9h0c0.9-0.8,1.9-1.4,2.9-2.1c0.7-0.4,1.4-0.7,2.1-1l0.3-0.1c0.5-0.2,1-0.4,1.6-0.6
		c1.8-0.6,3.7-0.9,5.7-0.9h0.2c10.1,0,18.5,7.6,19.8,17.4c0.1,0.8,0.2,1.7,0.2,2.6C11.5,158.9,5.6,166.4-2.4,169z"/>
	<path fill="#555555" d="M4.2,140.6c-7.2,0-14.5,0-21.7,0c-0.5,1.5-1,3.1-1.5,4.7c6.2,0.1,12.9,0.1,19.1,0c-0.7,3.1-2.1,6.2-2.9,9.3
		c-6.4,0-12.8,0-19.3,0c-0.6,1.5-1.1,3.1-1.5,4.6c3.4,0.1,7.1,0.1,10.8,0.1s7.5,0.3,10.9,0c2.6-0.2,4.8-2.2,5.6-3.9
		c0.6-1.3,1.1-3.2,1.8-5.1c0.6-1.9,1.3-3.7,1.7-5.2C7.7,142.6,6.2,140.8,4.2,140.6z"/>
	<path fill="#555555" d="M-11.3,147.7c-3.8,0-7.6,0-11.5,0c-0.6,1.4-1,3-1.6,4.4c3.8,0,7.7,0,11.5,0
		C-12.3,150.6-11.8,149.1-11.3,147.7z"/>
	<path fill="#555555" d="M-26.7,88.6c0.1,1.9-0.2,3.8-0.2,5.8c-5,0-9.9,0-14.8,0c-0.1,0.9-0.1,1.9-0.2,2.9c2.7,0.1,5.4,0,8.3,0
		c2.8,0,5.9,0.2,8.4,0c2-0.1,3.2-1.4,3.5-2.4c0.2-0.8,0.2-2,0.2-3.2c0-1.2,0.2-2.3,0.1-3.2c-0.1-1.5-1.6-2.6-3.2-2.8
		c-5.6,0-11.1,0-16.7,0c-0.1,1,0,1.9-0.1,2.9C-36.6,88.6-31.4,88.6-26.7,88.6z"/>
	<path fill="#555555" d="M-34.9,90.1c-2.9,0-5.9,0-8.8,0c-0.2,0.8-0.1,1.8-0.3,2.7c2.9,0,5.9,0,8.9,0C-35,91.9-35,90.9-34.9,90.1z"
		/>
	<path fill="#555555" d="M-61.9,121.1c-5.6,0-11.1,0-16.7,0c-0.1,1,0,1.9-0.1,2.9c4.8,0.1,10,0.1,14.7,0c0.1,1.9-0.2,3.8-0.2,5.8
		c-5,0-9.9,0-14.8,0c-0.1,0.9-0.1,1.9-0.2,2.9c2.7,0.1,5.4,0,8.3,0c2.8,0,5.9,0.2,8.4,0c2-0.1,3.2-1.4,3.5-2.4
		c0.2-0.8,0.2-2,0.2-3.2c0-1.2,0.2-2.3,0.1-3.2C-58.8,122.4-60.3,121.3-61.9,121.1z"/>
	<path fill="#555555" d="M-72.3,125.5c-2.9,0-5.9,0-8.8,0c-0.2,0.8-0.1,1.8-0.3,2.7c2.9,0,5.9,0,8.9,0
		C-72.4,127.3-72.3,126.4-72.3,125.5z"/>
</g>
</svg>
