<?xml version="1.0" encoding="utf-8"?>
<!-- Generator: Adobe Illustrator 18.1.1, SVG Export Plug-In . SVG Version: 6.00 Build 0)  -->
<svg version="1.1" id="Layer_1" xmlns="http://www.w3.org/2000/svg" xmlns:xlink="http://www.w3.org/1999/xlink" x="0px" y="0px"
	 viewBox="-94 77.2 110.6 97.8" enable-background="new -94 77.2 110.6 97.8" xml:space="preserve">
<g id="g8740" transform="translate(1103.5737,753.5596)" opacity="0.3">
	<path id="path8742" fill="#555555" d="M-1106-584.6L-1106-584.6c-1.9,0.6-4,0.9-6.1,0.9c-2.3,0-4.5-0.4-6.5-1.1
		c-3.1-1.1-5.8-2.8-7.9-5.1c-1.5-1.6-2.8-3.4-3.7-5.5c-0.6-1.4-1.1-2.9-1.4-4.5c-0.2-0.9-0.3-1.7-0.3-2.6c0-0.4,0-0.7,0-1.1
		c0-0.9,0-1.7,0.2-2.6c0-0.4,0.1-0.7,0.2-1.1c0.2-0.9,0.4-1.8,0.7-2.7c0.2-0.6,0.4-1.1,0.6-1.6c0.6-1.3,1.2-2.5,2-3.6
		c0.2-0.2,0.3-0.4,0.5-0.6c0.6-0.8,1.2-1.5,1.9-2.2c0.3-0.3,0.7-0.6,1-0.9h0c0.9-0.8,1.9-1.4,2.9-2.1c0.7-0.4,1.4-0.7,2.1-1l0.3-0.1
		c0.5-0.2,1-0.4,1.6-0.6c1.8-0.6,3.7-0.9,5.7-0.9h0.2c10.1,0,18.5,7.6,19.8,17.4c0.1,0.8,0.2,1.7,0.2,2.6
		C-1092.1-594.7-1097.9-587.2-1106-584.6 M-1136.7-624.2c-3.6,0-6.9-0.5-9.8-1.3h0c-0.8-0.2-1.5-0.4-2.2-0.7v-0.2c0-1-0.2-2-0.5-3
		c-0.2-0.8-0.6-1.5-1-2.2c1.1,0.5,2.3,1,3.6,1.3h0c2.9,0.8,6.2,1.3,9.8,1.3c3.6,0,6.9-0.5,9.8-1.3h0c1.4-0.4,2.6-0.8,3.7-1.4
		c1.4-0.7,2.7-1.5,3.5-2.4c0.4-0.4,0.8-0.8,1-1.3c0.4,0.7,0.7,1.4,0.7,2.2c-0.3,0.1-0.5,0.1-0.8,0.2c-1.4,0.4-2.7,0.9-4,1.5
		c-1,0.5-1.9,1-2.8,1.5c-1.6,1-3.1,2.2-4.4,3.6c-0.5,0.5-1,1.1-1.5,1.6C-1133-624.3-1134.8-624.2-1136.7-624.2 M-1134.6-619.5
		c-0.4,0.8-0.7,1.6-1,2.5c-0.3,0-0.7,0-1,0c-3.6,0-6.9-0.5-9.8-1.3h0c-0.8-0.2-1.5-0.4-2.2-0.7v-4.7c0.7,0.2,1.4,0.5,2.2,0.7h0
		c2.9,0.8,6.2,1.3,9.8,1.3c1.1,0,2.2,0,3.3-0.1C-1133.8-621-1134.2-620.3-1134.6-619.5 M-1148.6-611.5v-4.7c0.7,0.2,1.4,0.5,2.2,0.7
		h0c2.9,0.8,6.2,1.3,9.8,1.3h0.2c-0.2,0.7-0.3,1.4-0.4,2.1c-0.1,0.8-0.2,1.7-0.2,2.6c-3.5,0-6.7-0.5-9.4-1.3h0
		C-1147.2-611-1147.9-611.2-1148.6-611.5 M-1137-606.9v3.3c0,0.5,0,0.9,0,1.4c-4.4,0-8.4-0.8-11.6-2v-4.7
		C-1145.5-607.7-1141.5-607-1137-606.9 M-1136.7-594.8c-4.5,0-8.7-0.7-12-2v-4.7c3.2,1.2,7.4,2,11.9,2c0.3,1.6,0.7,3.2,1.2,4.7
		C-1135.9-594.8-1136.3-594.8-1136.7-594.8 M-1152-635.3L-1152-635.3c-0.6-0.4-1.2-0.8-1.6-1.3c-0.8-0.7-1.3-1.5-1.6-2.4
		c-0.2-0.4-0.2-0.9-0.2-1.3c0-0.8,0.2-1.6,0.7-2.4c0.3,0.5,0.6,0.9,1.1,1.3c0.9,0.9,2.1,1.7,3.6,2.4c1.1,0.5,2.3,0.9,3.6,1.3h0
		c2.9,0.8,6.2,1.3,9.8,1.3c3.6,0,6.9-0.5,9.8-1.3h0c1.3-0.4,2.5-0.8,3.6-1.3c1.5-0.7,2.7-1.5,3.6-2.4c0.4-0.4,0.8-0.9,1.1-1.3
		c0.5,0.8,0.7,1.5,0.7,2.4c0,0.5-0.1,0.9-0.2,1.3c-0.3,0.8-0.8,1.6-1.6,2.4c-0.5,0.4-1,0.9-1.6,1.3h0c-1.5,1-3.3,1.8-5.5,2.4h0
		c-2.8,0.8-6.2,1.3-9.8,1.3c-3.6,0-6.9-0.5-9.8-1.3h0C-1148.6-633.5-1150.5-634.3-1152-635.3 M-1154.4-625.7c0,0.2-0.1,0.5-0.2,0.7
		c-0.1,0.4-0.3,0.7-0.5,1v0c-0.1,0.1-0.2,0.3-0.3,0.4c-0.2,0.3-0.5,0.6-0.8,0.9c-0.5,0.5-1.1,0.9-1.7,1.3h0c-0.9,0.6-2,1.1-3.2,1.6
		c-0.8,0.3-1.6,0.6-2.5,0.8c-2.8,0.8-6,1.2-9.5,1.2s-6.7-0.4-9.5-1.2c-2.3-0.6-4.2-1.4-5.7-2.4c-0.7-0.4-1.3-0.9-1.8-1.3
		c-0.8-0.7-1.3-1.5-1.6-2.4c-0.2-0.4-0.2-0.9-0.2-1.4c0-4.8,8.4-8.6,18.8-8.6c4.6,0,8.7,0.8,12,2c2.7,1,4.8,2.4,5.9,4
		c0.2,0.3,0.4,0.7,0.6,1c0.1,0.1,0.1,0.2,0.1,0.4v0c0.1,0.4,0.2,0.8,0.2,1.2C-1154.3-626.1-1154.3-625.9-1154.4-625.7
		 M-1154.4-618.5c0,0.3-0.1,0.6-0.2,0.9c-0.1,0.4-0.3,0.7-0.5,1.1c-0.1,0.2-0.2,0.3-0.3,0.4v0c-0.2,0.3-0.5,0.6-0.7,0.8
		c-0.5,0.4-1,0.9-1.6,1.3h0c-0.9,0.6-2.1,1.2-3.3,1.6c-0.7,0.3-1.4,0.5-2.2,0.7c-2.9,0.8-6.2,1.3-9.8,1.3c-3.6,0-6.9-0.5-9.8-1.3
		c-2.2-0.6-4.1-1.4-5.5-2.4h0c-0.6-0.4-1.2-0.8-1.6-1.3c-0.8-0.7-1.3-1.5-1.6-2.4c-0.2-0.4-0.2-0.9-0.2-1.3c0-0.8,0.2-1.6,0.7-2.4
		c0.3,0.5,0.6,0.9,1.1,1.3c0.9,0.9,2.1,1.7,3.6,2.4c1,0.5,2.2,0.9,3.5,1.3h0c2.9,0.8,6.2,1.3,9.8,1.3c3.6,0,6.9-0.5,9.8-1.3h0
		c0.8-0.2,1.5-0.4,2.2-0.7c0.5-0.2,0.9-0.4,1.4-0.6c1.5-0.7,2.7-1.5,3.6-2.4c0.4-0.4,0.8-0.8,1.1-1.3c0.1,0.2,0.2,0.5,0.4,0.7
		c0,0.1,0.1,0.1,0.1,0.2c0,0,0,0,0,0c0.2,0.4,0.2,0.9,0.2,1.4C-1154.3-618.8-1154.3-618.6-1154.4-618.5 M-1154.4-611L-1154.4-611
		c0,0.3-0.1,0.6-0.2,0.9v0c-0.1,0.4-0.3,0.7-0.5,1v0c-0.1,0.2-0.2,0.3-0.4,0.5v0c-0.2,0.3-0.4,0.5-0.7,0.8c-0.5,0.5-1,0.9-1.7,1.3h0
		c-0.9,0.6-2.1,1.2-3.3,1.7c-0.7,0.3-1.4,0.5-2.2,0.7h0c-2.9,0.8-6.2,1.3-9.8,1.3c-3.6,0-6.9-0.5-9.8-1.3h0c-2.2-0.6-4-1.4-5.5-2.4
		h0c-0.6-0.4-1.2-0.9-1.7-1.3c-0.7-0.7-1.3-1.5-1.5-2.3v0c-0.1-0.4-0.2-0.8-0.2-1.3c0-0.8,0.2-1.6,0.7-2.4c0.3,0.4,0.6,0.9,1,1.3
		c0.9,0.9,2.1,1.7,3.5,2.4h0c1.1,0.5,2.3,1,3.7,1.3h0c2.9,0.8,6.2,1.3,9.8,1.3c3.6,0,6.9-0.5,9.8-1.3h0c0.8-0.2,1.5-0.4,2.2-0.7
		c0.5-0.2,1-0.4,1.5-0.6h0c1.5-0.7,2.7-1.5,3.5-2.4c0.4-0.4,0.8-0.8,1-1.3c0.1,0.2,0.2,0.4,0.3,0.6v0c0,0,0,0,0,0
		c0.2,0.5,0.4,1.1,0.4,1.7C-1154.3-611.3-1154.3-611.2-1154.4-611 M-1154.6-602.8c-0.1,0.4-0.3,0.7-0.5,1.1
		c-0.3,0.4-0.6,0.9-1.1,1.3c-0.9,0.9-2.1,1.7-3.6,2.4c-3.4,1.6-8.1,2.5-13.3,2.5c-7.5,0-13.9-2-17-4.9c-0.8-0.7-1.3-1.5-1.6-2.4
		c-0.2-0.4-0.2-0.9-0.2-1.3c0-0.8,0.2-1.6,0.7-2.4c0.3,0.5,0.6,0.9,1.1,1.3c0.9,0.9,2.1,1.7,3.6,2.4c3.4,1.6,8.1,2.6,13.4,2.6
		c4.6,0,8.8-0.8,12-2c0.5-0.2,0.9-0.4,1.4-0.6c1.5-0.7,2.7-1.5,3.6-2.4c0.4-0.4,0.8-0.8,1.1-1.3c0.1,0.2,0.2,0.5,0.4,0.7
		c0,0.1,0.1,0.1,0.1,0.2c0,0,0,0,0,0c0.2,0.4,0.2,0.9,0.2,1.4S-1154.4-603.3-1154.6-602.8 M-1155.6-593.7c-2.7,3.2-9.5,5.5-17.5,5.5
		c-10.4,0-18.8-3.9-18.8-8.6c0-0.8,0.2-1.6,0.7-2.4c2.2,3.6,9.5,6.3,18.1,6.3c6,0,11.3-1.3,14.7-3.3c1.5-0.9,2.7-1.9,3.3-3
		c0.5,0.8,0.7,1.5,0.7,2.4C-1154.3-595.7-1154.8-594.6-1155.6-593.7 M-1154.7-649.9c0.3,0.4,0.6,0.9,1,1.3c0.9,0.9,2.1,1.7,3.5,2.4
		c1.1,0.5,2.3,1,3.7,1.4h0c2.9,0.8,6.2,1.3,9.8,1.3c3.6,0,7-0.5,9.8-1.3h0c1.4-0.4,2.6-0.8,3.7-1.4c1.4-0.7,2.7-1.5,3.5-2.4
		c0.4-0.4,0.8-0.8,1-1.3c0.5,0.8,0.7,1.5,0.7,2.4c0,0.4-0.1,0.9-0.2,1.3v0c-0.3,0.8-0.8,1.6-1.6,2.4c-0.5,0.5-1,0.9-1.7,1.3
		c-1.5,0.9-3.3,1.8-5.5,2.4h0c-2.9,0.8-6.2,1.3-9.8,1.3c-3.6,0-7-0.5-9.8-1.3h0c-2.2-0.6-4-1.4-5.5-2.4c-0.6-0.4-1.2-0.9-1.7-1.3
		c-0.8-0.7-1.3-1.5-1.6-2.4v0c-0.1-0.4-0.2-0.8-0.2-1.3C-1155.4-648.4-1155.2-649.2-1154.7-649.9 M-1154.7-657.3
		c0.3,0.5,0.7,0.9,1.1,1.3c0.9,0.9,2.1,1.7,3.6,2.4c1.1,0.5,2.2,0.9,3.5,1.3h0c2.9,0.8,6.2,1.3,9.8,1.3c3.6,0,7-0.5,9.8-1.3h0
		c1.3-0.4,2.5-0.8,3.5-1.3c1.5-0.7,2.7-1.5,3.6-2.4c0.4-0.4,0.8-0.9,1.1-1.3c0.5,0.8,0.7,1.5,0.7,2.4c0,0.5-0.1,0.9-0.2,1.3
		c-0.3,0.8-0.8,1.6-1.6,2.4c-0.5,0.4-1,0.9-1.6,1.3c-1.5,0.9-3.3,1.8-5.5,2.4h0c-2.9,0.8-6.2,1.3-9.8,1.3c-3.6,0-7-0.5-9.8-1.3h0
		c-2.2-0.6-4-1.4-5.5-2.4c-0.6-0.4-1.2-0.8-1.6-1.3c-0.8-0.7-1.3-1.5-1.6-2.4c-0.2-0.4-0.2-0.9-0.2-1.3
		C-1155.4-655.8-1155.2-656.6-1154.7-657.3 M-1136.7-671.1c10.4,0,18.8,3.9,18.8,8.7c0,0.5-0.1,0.9-0.2,1.4
		c-0.3,0.8-0.8,1.6-1.6,2.3v0c-0.5,0.5-1.1,0.9-1.7,1.3c-1.5,1-3.5,1.8-5.7,2.4c-2.8,0.8-6,1.2-9.5,1.2c-3.5,0-6.7-0.4-9.5-1.2
		c-2.2-0.6-4.2-1.4-5.7-2.4c-0.7-0.4-1.3-0.9-1.8-1.3v0c-0.8-0.7-1.3-1.5-1.6-2.3c-0.2-0.4-0.2-0.9-0.2-1.4
		C-1155.4-667.2-1147-671.1-1136.7-671.1 M-1115.3-628.6c0.6-0.2,1.3-0.2,1.9-0.2l1,0c0.1,0,0.2,0,0.2,0c0.1,0,0.2,0,0.3,0l0.5,0
		l1.9,0.1c0.6,0,1.3,0.2,1.9,0.3c1.3,0.2,2.5,0.7,3.7,1.1c0.5,0.3,1.1,0.5,1.6,0.8c0,0,0.1,0,0.1,0.1c0.5,0.2,1,0.5,1.4,0.8
		c0.5,0.3,0.9,0.6,1.4,0.9c0.4,0.3,0.8,0.7,1.2,1c0.3,0.3,0.7,0.6,1,0.9c0.3,0.3,0.6,0.6,0.8,0.9c0.5,0.6,1,1.1,1.3,1.6
		c0.6,0.8,0.9,1.8,1,1.9c-0.1-0.1-0.5-0.6-1.2-1.3c-0.4-0.4-0.8-0.9-1.5-1.4c-0.6-0.5-1.2-1.1-2-1.6c-0.4-0.3-0.8-0.6-1.2-0.8
		c-0.4-0.2-0.9-0.5-1.4-0.8c-0.5-0.3-1-0.5-1.5-0.7c-0.5-0.2-1-0.4-1.6-0.7c-1.1-0.3-2.3-0.7-3.4-0.9c-0.6-0.1-1.2-0.3-1.8-0.3
		l-1.9-0.1l-0.5,0c0,0-0.1,0-0.2,0c-0.1,0-0.2,0-0.2,0l-0.9,0c-0.6,0-1.2,0-1.8,0.2c-0.6,0.1-1.2,0.2-1.8,0.3
		c-0.3,0.1-0.7,0.2-1,0.3c-0.2,0.1-0.5,0.1-0.7,0.2c-0.2,0-0.3,0.1-0.4,0.1c-0.4,0.1-0.8,0.3-1.2,0.5c-0.5,0.2-1,0.3-1.5,0.6
		c-0.5,0.2-0.9,0.5-1.4,0.7c-0.5,0.2-0.9,0.5-1.3,0.8c-0.4,0.3-0.8,0.5-1.2,0.8c-0.3,0.2-0.6,0.5-0.9,0.7c-0.6,0.5-1.1,0.9-1.5,1.3
		c-0.7,0.7-1.2,1.1-1.3,1.2c0.1-0.1,0.4-1,1-1.8c0.3-0.5,0.8-1,1.4-1.5c0.2-0.2,0.3-0.4,0.5-0.5c0.1-0.1,0.2-0.2,0.4-0.4
		c0,0,0,0,0,0h0c0.3-0.3,0.7-0.5,1-0.8c0.2-0.2,0.5-0.4,0.7-0.6c0.3-0.2,0.6-0.4,0.9-0.6c0.3-0.2,0.6-0.4,1-0.6
		c0.5-0.3,1-0.5,1.5-0.8c0.2-0.1,0.5-0.2,0.7-0.3c0.3-0.1,0.6-0.2,0.8-0.3c0,0,0.1,0,0.2,0c0.2-0.1,0.5-0.2,0.7-0.2
		c0.4-0.1,0.7-0.2,1.1-0.4C-1116.6-628.3-1116-628.4-1115.3-628.6 M-1087-608.7c-0.6-14-11.2-25-25-25h-0.2v-28.3
		c0-8.3-10.3-14.3-24.5-14.3c-14.2,0-24.5,6-24.5,14.3v23c-3.5-1.1-7.5-1.7-12-1.7c-14.2,0-24.5,6-24.5,14.3v29.6
		c0,8.3,10.3,14.4,24.5,14.4c10.6,0,19.1-3.4,22.6-8.6c3.9,1.5,8.6,2.3,13.8,2.3c1.5,0,3-0.1,4.4-0.2c4.6,6.3,11.9,10.3,20.2,10.3
		c13.8,0,24.8-11.2,25-25C-1087-604.9-1086.9-607.4-1087-608.7"/>
</g>
<sodipodi:namedview  id="namedview10" pagecolor="#ffffff" bordercolor="#666666" borderopacity="1" inkscape:current-layer="svg2" inkscape:pageopacity="0" inkscape:window-maximized="1" inkscape:pageshadow="2" inkscape:window-height="681" inkscape:window-y="27" inkscape:window-width="1366" inkscape:window-x="0" inkscape:cy="500" inkscape:cx="-305.08475" inkscape:zoom="0.236" showgrid="false" guidetolerance="10" gridtolerance="10" objecttolerance="10">
	</sodipodi:namedview>
<g opacity="0.3">
	<path fill-rule="evenodd" clip-rule="evenodd" fill="#555555" d="M-16,142c6.3,0,12.5,0,18.8,0c1.7,0.2,3,1.7,2.5,3.8
		c-0.3,1.3-0.9,2.9-1.4,4.5c-0.5,1.6-1,3.4-1.5,4.4c-0.8,1.5-2.6,3.2-4.8,3.4c-2.9,0.2-6.2,0-9.4,0c-3.2,0-6.4,0.1-9.3-0.1
		c0.4-1.3,0.8-2.7,1.3-4c5.5,0,11.1,0,16.6,0c0.7-2.7,1.9-5.4,2.5-8.1c-5.4,0.1-11.2,0.1-16.6,0C-16.9,144.7-16.5,143.3-16,142z"/>
	<path fill-rule="evenodd" clip-rule="evenodd" fill="#555555" d="M-20.6,148.1c3.3,0,6.6,0,9.9,0c-0.4,1.3-0.9,2.5-1.3,3.8
		c-3.3,0-6.6,0-9.9,0C-21.5,150.7-21.1,149.3-20.6,148.1z"/>
</g>
<g opacity="0.3">
	<path fill-rule="evenodd" clip-rule="evenodd" fill="#555555" d="M-39.3,85.9c5.2,0,10.3,0,15.5,0c1.4,0.1,2.5,1,2.1,2.2
		c-0.3,0.7-0.8,1.6-1.2,2.5c-0.4,0.9-0.8,1.9-1.2,2.5c-0.6,0.8-2.1,1.8-4,1.9c-2.4,0.1-5.1,0-7.7,0c-2.7,0-5.3,0-7.7,0
		c0.3-0.8,0.7-1.5,1.1-2.2c4.6,0,9.2,0,13.7,0c0.6-1.5,1.6-3,2.1-4.5c-4.4,0.1-9.2,0.1-13.7,0C-40,87.4-39.7,86.6-39.3,85.9z"/>
	<path fill-rule="evenodd" clip-rule="evenodd" fill="#555555" d="M-43,89.3c2.7,0,5.4,0,8.2,0c-0.4,0.7-0.7,1.4-1.1,2.1
		c-2.7,0-5.5,0-8.2,0C-43.8,90.8-43.5,90-43,89.3z"/>
</g>
<g opacity="0.3">
	<path fill-rule="evenodd" clip-rule="evenodd" fill="#555555" d="M-75.5,122.2c5.2,0,10.3,0,15.5,0c1.4,0.1,2.5,1,2.1,2.2
		c-0.3,0.7-0.8,1.6-1.2,2.5c-0.4,0.9-0.8,1.9-1.2,2.5c-0.6,0.8-2.1,1.8-4,1.9c-2.4,0.1-5.1,0-7.7,0c-2.7,0-5.3,0-7.7,0
		c0.3-0.8,0.7-1.5,1.1-2.2c4.6,0,9.2,0,13.7,0c0.6-1.5,1.6-3,2.1-4.5c-4.4,0.1-9.2,0.1-13.7,0C-76.2,123.7-75.8,122.9-75.5,122.2z"
		/>
	<path fill-rule="evenodd" clip-rule="evenodd" fill="#555555" d="M-79.2,125.7c2.7,0,5.4,0,8.2,0c-0.4,0.7-0.7,1.4-1.1,2.1
		c-2.7,0-5.5,0-8.2,0C-79.9,127.1-79.7,126.3-79.2,125.7z"/>
</g>
</svg>
