<?xml version="1.0" encoding="utf-8"?>
<!-- Generator: Adobe Illustrator 18.1.1, SVG Export Plug-In . SVG Version: 6.00 Build 0)  -->
<svg version="1.1" id="Layer_1" xmlns="http://www.w3.org/2000/svg" xmlns:xlink="http://www.w3.org/1999/xlink" x="0px" y="0px"
	 viewBox="0 0 300 250" enable-background="new 0 0 300 250" xml:space="preserve">
<g id="g8648" transform="translate(606.8384,804.3359)" opacity="0.3">
	<path id="path8650" fill="#555555" d="M-510.1-753.6c0.2-2.1,0.2-3.5,0.4-5.7c0.2-2,0.6-3.9,1.2-5.7c1-3.7,2.3-7.2,4.3-10.2
		c2-3.1,4.1-5.9,6.4-8c2.3-2.3,4.9-3.9,7.4-5.5c2.3-1.4,4.9-2.3,6.8-3.3c2.1-0.8,3.9-1.4,5.5-1.8c3.1-1,5.1-0.6,5.1-0.6l0.8,2.5
		c0,0-0.4,0.2-1.2,0.6c-0.8,0.4-2,0.8-3.3,1.2c-1.4,0.4-3.1,1.2-5.1,2s-3.9,2-6.3,3.3c-4.3,2.9-8.4,6.4-11.5,11.9
		c-1.6,2.7-2.5,5.9-3.3,9c-0.4,1.6-0.6,3.3-0.8,4.9c-0.2,1.6-0.2,3.5-0.2,5.1c0,6.2,0.2,12.7,0.2,18.7h-6.8
		C-510.3-740.9-510.3-747.3-510.1-753.6 M-424.5-750.8v16h-64.6v-16c0-21.9,22.7-24.4,32.4-24.4
		C-447.2-775.2-424.5-772.9-424.5-750.8 M-376.3-589.5h-149.2h-11.9V-700h11.9h7.4h7.6h6.4h14.8h64.6h28.9h19.3L-376.3-589.5
		L-376.3-589.5z M-550.1-579.7h1.8h4.9h10H-380h2.1h7.8h4.9h1.6v15h-14.3h-172.1L-550.1-579.7L-550.1-579.7z M-550.1-725h13.3h18.7
		h7.8h6.1h15h64.6h28.9h17.8h1h13.3v15h-1.2h-4.5h-8.6h-0.4h-17.4h-28.9h-64.6H-504h-6.2h-7.6h-17.4h-9h-4.5h-1.2L-550.1-725
		L-550.1-725z M-362.2-700c4.7,0,8.6-3.9,8.6-8.6v-17.8c0-4.7-3.9-8.6-8.6-8.6h-33.4v-16c0-31.8-24.6-53.1-61.1-53.1
		s-61.1,21.3-61.1,53.1v16h-33.6c-4.7,0-8.6,3.9-8.6,8.6v17.8c0,4.7,3.7,8.6,8.6,8.6h2v89.3l0,0l0,0v21.3h-2c-4.7,0-8.6,3.7-8.6,8.6
		v17.8c0,4.7,3.7,8.6,8.6,8.6h189.3c4.7,0,8.6-3.7,8.6-8.6v-17.8c0-4.7-3.9-8.6-8.6-8.6h-2V-700L-362.2-700L-362.2-700z"/>
</g>
<g opacity="0.3">
	<path fill="#555555" d="M117.2,127.3c24.8,0,49.6,0,74.4,0c6.8,0.8,11.9,6.8,10,15.2c-1.2,5.1-3.7,11.3-5.7,17.8
		c-2.1,6.4-3.9,13.3-6.1,17.6c-2.9,5.9-10.4,12.7-19.3,13.5c-11.5,1-24.6,0-37.3,0s-25.2,0.2-36.9-0.2c1.6-5.3,3.3-10.7,5.3-15.8
		c22.1,0,43.9,0,66,0c2.9-10.9,7.4-21.5,10-32c-21.3,0.4-44.3,0.4-65.6,0C113.9,138,115.5,132.5,117.2,127.3z"/>
	<path fill="#555555" d="M99.2,151.7c13.1,0,26.2,0,39.3,0c-1.8,4.9-3.5,10-5.3,15c-13.1,0-26.4,0-39.5,0
		C95.7,161.8,97.1,156.4,99.2,151.7z"/>
</g>
</svg>
