<?xml version="1.0" encoding="utf-8"?>
<!-- Generator: Adobe Illustrator 18.1.1, SVG Export Plug-In . SVG Version: 6.00 Build 0)  -->
<svg version="1.1" id="Layer_1" xmlns="http://www.w3.org/2000/svg" xmlns:xlink="http://www.w3.org/1999/xlink" x="0px" y="0px"
	 viewBox="-85 62 128 128" enable-background="new -85 62 128 128" xml:space="preserve">
<g id="g8648" transform="translate(606.8384,804.3359)" opacity="0.3">
	<path id="path8650" fill="#555555" d="M-654.8-716.3c0.1-1.1,0.1-1.8,0.2-2.9c0.1-1,0.3-2,0.6-2.9c0.5-1.9,1.2-3.7,2.2-5.2
		c1-1.6,2.1-3,3.3-4.1c1.2-1.2,2.5-2,3.8-2.8c1.2-0.7,2.5-1.2,3.5-1.7c1.1-0.4,2-0.7,2.8-0.9c1.6-0.5,2.6-0.3,2.6-0.3l0.4,1.3
		c0,0-0.2,0.1-0.6,0.3c-0.4,0.2-1,0.4-1.7,0.6c-0.7,0.2-1.6,0.6-2.6,1c-1,0.4-2,1-3.2,1.7c-2.2,1.5-4.3,3.3-5.9,6.1
		c-0.8,1.4-1.3,3-1.7,4.6c-0.2,0.8-0.3,1.7-0.4,2.5c-0.1,0.8-0.1,1.8-0.1,2.6c0,3.2,0.1,6.5,0.1,9.6h-3.5
		C-654.9-709.8-654.9-713.1-654.8-716.3 M-611-714.9v8.2h-33.1v-8.2c0-11.2,11.6-12.5,16.6-12.5C-622.6-727.4-611-726.2-611-714.9
		 M-586.3-632.3h-76.4h-6.1v-56.6h6.1h3.8h3.9h3.3h7.6h33.1h14.8h9.9L-586.3-632.3L-586.3-632.3z M-675.3-627.3h0.9h2.5h5.1h78.6
		h1.1h4h2.5h0.8v7.7h-7.3h-88.1L-675.3-627.3L-675.3-627.3z M-675.3-701.7h6.8h9.6h4h3.1h7.7h33.1h14.8h9.1h0.5h6.8v7.7h-0.6h-2.3
		h-4.4h-0.2h-8.9H-611h-33.1h-7.6h-3.2h-3.9h-8.9h-4.6h-2.3h-0.6L-675.3-701.7L-675.3-701.7z M-579.1-688.9c2.4,0,4.4-2,4.4-4.4
		v-9.1c0-2.4-2-4.4-4.4-4.4h-17.1v-8.2c0-16.3-12.6-27.2-31.3-27.2c-18.7,0-31.3,10.9-31.3,27.2v8.2H-676c-2.4,0-4.4,2-4.4,4.4v9.1
		c0,2.4,1.9,4.4,4.4,4.4h1v45.7c0,0,0,0,0,0l0,0v10.9h-1c-2.4,0-4.4,1.9-4.4,4.4v9.1c0,2.4,1.9,4.4,4.4,4.4h96.9
		c2.4,0,4.4-1.9,4.4-4.4v-9.1c0-2.4-2-4.4-4.4-4.4h-1v-56.6L-579.1-688.9L-579.1-688.9z"/>
</g>
<g opacity="0.3">
	<path fill-rule="evenodd" clip-rule="evenodd" fill="#555555" d="M-37.5,127.2c12.7,0,25.4,0,38.1,0c3.5,0.4,6.1,3.5,5.1,7.8
		c-0.6,2.6-1.9,5.8-2.9,9.1c-1.1,3.3-2,6.8-3.1,9c-1.5,3-5.3,6.5-9.9,6.9c-5.9,0.5-12.6,0-19.1,0c-6.5,0-12.9,0.1-18.9-0.1
		c0.8-2.7,1.7-5.5,2.7-8.1c11.3,0,22.5,0,33.8,0c1.5-5.6,3.8-11,5.1-16.4c-10.9,0.2-22.7,0.2-33.6,0
		C-39.2,132.7-38.4,129.9-37.5,127.2z"/>
	<path fill-rule="evenodd" clip-rule="evenodd" fill="#555555" d="M-46.7,139.7c6.7,0,13.4,0,20.1,0c-0.9,2.5-1.8,5.1-2.7,7.7
		c-6.7,0-13.5,0-20.2,0C-48.5,144.9-47.8,142.1-46.7,139.7z"/>
</g>
</svg>
