<?xml version="1.0" encoding="utf-8"?>
<!-- Generator: Adobe Illustrator 18.1.1, SVG Export Plug-In . SVG Version: 6.00 Build 0)  -->
<svg version="1.1" id="Layer_1" xmlns="http://www.w3.org/2000/svg" xmlns:xlink="http://www.w3.org/1999/xlink" x="0px" y="0px"
	 viewBox="-85 89.9 128 73.1" enable-background="new -85 89.9 128 73.1" xml:space="preserve">
<g id="g9048" transform="translate(187.5181,468.3906)" opacity="0.3">
	<path id="path9050" fill="#555555" d="M-266.9-372.7c12.4,2.2,22.7,3.6,28.1,3.7c12.3,0.2,24-1,35.3-2.2
		c10.5-1.1,20.4-2.1,30.9-2.1c4.6,0,8.9,0.2,13.1,0.6v3.7c-4-0.4-8.2-0.6-12.6-0.6c-10.8,0-21.7,1.1-32.2,2.2
		c-10.4,1.1-21.2,2.2-31.7,2.2c-8.8,0-16.6-0.8-23.9-2.4c-0.8-0.2-1.6,0-2.2,0.5c-0.6,0.5-1,1.2-1,2.1v44c-1.3-0.2-2.6-0.4-3.9-0.6
		L-266.9-372.7L-266.9-372.7z M-150.1-316.2c-5.4-0.8-11-1.2-17.1-1.2c-12.4,0-25,1.7-37.1,3.4c-11.9,1.6-24.3,3.4-36.4,3.4
		c-6.1,0-11.7-0.4-17.1-1.3v-3.1v-2.6v-2.6v-12.8v-3.4v-16.1v-3.3v-5.6c0.9,0.2,1.8,0.3,2.7,0.5c3.4,0.5,6.9,0.9,10.6,1.1h0.2
		c2.7,0.2,5.5,0.3,8.4,0.3c1.8,0,3.7,0,5.5-0.1h0c1.3,0,2.5-0.1,3.7-0.1c7.7-0.4,15.5-1.2,23-2c1.5-0.2,3-0.3,4.5-0.5
		c1.2-0.1,2.4-0.2,3.6-0.4c7.1-0.7,14.2-1.3,21.3-1.4c0.8,0,1.6,0,2.4,0c0.3,0,0.6,0,1,0c4.1,0,8,0.2,11.7,0.6
		c0.9,0.1,1.8,0.2,2.6,0.3c0.9,0.1,1.8,0.2,2.6,0.4c1.3,0.2,2.6,0.4,3.9,0.7C-150.1-362.3-150.1-316.2-150.1-316.2z M-146.9-367
		c-2.3-0.5-4.7-1-7.1-1.3v-6.7c0-1.3-1-2.5-2.3-2.6c-5.2-0.6-10.4-0.9-16.1-0.9c-10.8,0-21.3,1.1-31.5,2.1
		c-11.1,1.1-22.8,2.3-34.7,2.1c-5.5-0.1-17.1-1.7-30.4-4.2c-0.8-0.1-1.6,0.1-2.2,0.6c-0.6,0.5-1,1.2-1,2v56.6c0,1.3,0.9,2.3,2.1,2.6
		c2.3,0.4,4.7,0.8,7.1,1.1v5.8c0,1.3,0.9,2.4,2.1,2.6c6.3,1.2,12.9,1.8,20.2,1.8c12.4,0,25-1.7,37.1-3.4c11.9-1.7,24.3-3.4,36.4-3.4
		c6.9,0,13.2,0.5,19.2,1.7c0.8,0.1,1.6-0.1,2.2-0.6c0.6-0.5,0.9-1.2,0.9-2v-51.3C-144.9-365.6-145.7-366.7-146.9-367"/>
</g>
<g id="g9056" transform="translate(219.2476,432.0215)" opacity="0.3">
	<path id="path9058" fill="#555555" d="M-252.4-283.8c-8.4,0.9-14.8,1.2-21.2,1.1c0-0.4-0.1-0.8-0.1-1.1c-0.2-1.8-0.7-3.5-1.8-4.8
		c-0.9-1.1-2.3-1.9-4.2-2.3v-1v-14.6c0.3,0,0.6-0.1,0.9-0.1c2.3-0.4,3.6-1.8,4.3-3.4c0.7-1.4,0.9-3,1-4.4c2.9,0.1,5.8,0.1,9,0.1
		c1.1,0,2.3-0.1,3.4-0.1c2.7-0.1,5.6-0.3,8.8-0.6c-1.6,3.5-3.8,9.7-3.8,16.2c0,2.6,0.4,5.1,0.9,7.4c0.1,0.4,0.2,0.8,0.3,1.2
		c0.5,1.7,1.1,3.2,1.6,4.5C-253-285-252.7-284.4-252.4-283.8 M-252.2-302.8c0.3-2.4,1-4.7,1.6-6.7c1.3-3.9,2.8-6.6,3-6.8
		c0.2-0.3,0.2-0.6,0.2-0.9c0-0.5-0.2-1-0.6-1.4c-0.4-0.4-0.9-0.5-1.4-0.5c-1.8,0.2-3.5,0.3-5.1,0.4c-2,0.1-3.9,0.3-5.7,0.3
		c-1.2,0.1-2.4,0.1-3.5,0.1c-4.2,0.1-8,0.1-11.6-0.1c-0.5,0-1,0.2-1.4,0.5c-0.4,0.3-0.6,0.9-0.6,1.4c0,5.7-1.3,6.1-3.3,6.1
		c-0.3,0-0.6,0-0.9,0c-0.5,0-1.1,0.1-1.4,0.5c-0.4,0.4-0.6,0.9-0.6,1.4v13v6.1c0,0.2,0,0.4,0.1,0.7c0.3,0.7,0.9,1.1,1.6,1.2
		c2.9,0.2,4,1,4.3,3.7c0.1,0.7,0.1,1.6,0.1,2.6v0.2c0,1,0.8,1.9,1.8,1.9c1.4,0.1,2.8,0.1,4.2,0.1c1.5,0,2.9,0,4.5-0.1h0
		c5.2-0.2,10.9-0.6,17.8-1.4c0.5-0.1,1-0.3,1.3-0.7c0.2-0.2,0.3-0.5,0.3-0.7c0.1-0.5,0-1.1-0.3-1.5c0,0-0.1-0.2-0.2-0.4
		c-0.3-0.4-0.8-1.3-1.4-2.5c-1.3-2.7-3-7.2-3-12.4v-0.2C-252.5-300.1-252.4-301.5-252.2-302.8"/>
</g>
<g id="g9060" transform="translate(258.6382,438.6816)" opacity="0.3">
	<path id="path9062" fill="#555555" d="M-234.9-300.1c-0.7,1.1-1,2.5-1.1,3.9c0,0.2,0,0.3,0,0.5c-6.5-0.1-13,0.2-21.1,1
		c0.2-0.5,0.5-1.1,0.8-1.8c0.6-1.3,1.1-2.9,1.6-4.6c0.3-1.1,0.6-2.2,0.8-3.4c0.3-1.7,0.5-3.5,0.5-5.3c0-6.3-2.2-12.1-3.9-15.5
		c7-0.5,12.9-0.7,18.5-0.6c1,0,1.9,0.1,2.9,0.1c0.1,1.1,0.2,2.2,0.5,3.2c0.7,2.4,2.2,4.3,5.5,5.1v14.6
		C-232.3-302.6-234-301.7-234.9-300.1 M-227.5-320.7c-0.1-0.1-0.3-0.1-0.4-0.1c-0.9-0.1-1.6-0.2-2.2-0.5c-1.8-0.7-2.3-2.4-2.3-6.2
		c0-1-0.8-1.8-1.8-1.9c-0.5,0-1-0.1-1.5-0.1c-2.1-0.1-4.2-0.1-6.4-0.1c-0.6,0-1.1,0-1.7,0c-5.1,0-10.5,0.3-16.9,0.9
		c-0.8,0.1-1.4,0.6-1.6,1.3c-0.2,0.6-0.1,1.2,0.2,1.6c0.2,0.3,4.7,7.6,4.7,16.1c0,1.9-0.2,3.7-0.6,5.4c-0.2,1.2-0.5,2.3-0.9,3.4
		c-0.6,1.8-1.2,3.4-1.8,4.7c-0.6,1.3-1.2,2.3-1.4,2.7c0,0,0,0,0,0.1c-0.2,0.3-0.3,0.6-0.3,1c0,0.5,0.2,1,0.6,1.4
		c0.1,0.1,0.2,0.2,0.3,0.2h0c0.3,0.2,0.6,0.3,0.9,0.3c0.1,0,0.1,0,0.2,0c2.8-0.3,5.5-0.6,8-0.8h0.1c4.8-0.4,9.1-0.6,13.2-0.6
		c1.5,0,3,0,4.6,0.1c0.5,0,1-0.2,1.4-0.5c0.2-0.2,0.3-0.4,0.4-0.7c0.1-0.2,0.1-0.4,0.1-0.7c0-0.6,0-1.3,0.1-2c0.1-1,0.3-1.9,0.6-2.5
		c0.2-0.3,0.4-0.7,1.6-0.9c0.2,0,0.5-0.1,0.9-0.1c0.3,0,0.6,0,0.9,0c0.3,0,0.6,0,0.8-0.1c0.2-0.1,0.5-0.2,0.6-0.4
		c0.4-0.4,0.6-0.9,0.6-1.4v-18C-226.2-319.8-226.7-320.5-227.5-320.7"/>
</g>
<g id="g9064" transform="translate(211.0181,443.8418)" opacity="0.3">
	<path id="path9066" fill="#555555" d="M-256.1-312.7L-256.1-312.7c-0.4-0.3-1-0.5-1.5-0.4c-1.5,0-2.7,1.3-2.7,2.8
		c0,1.5,1.2,2.8,2.7,2.7c1.1,0,2.1-0.8,2.5-1.8v0c0.1-0.3,0.2-0.7,0.2-1C-254.9-311.4-255.4-312.2-256.1-312.7"/>
</g>
<g id="g9068" transform="translate(253.2476,447.3711)" opacity="0.3">
	<path id="path9070" fill="#555555" d="M-237.3-321.3c-1.5,0-2.7,1.3-2.7,2.8c0,0.8,0.4,1.6,0.9,2.1c0.5,0.4,1.1,0.7,1.8,0.7
		c1.5,0,2.7-1.3,2.7-2.8c0-0.6-0.2-1.1-0.5-1.5C-235.6-320.9-236.4-321.3-237.3-321.3"/>
</g>
<g opacity="0.3">
	<path fill-rule="evenodd" clip-rule="evenodd" fill="#555555" d="M-23.2,124.3c6.1-0.6,12.2-1.3,18.2-1.9c1.7,0,2.9,1.4,2.4,3.6
		c-0.3,1.3-0.9,3-1.4,4.6c-0.5,1.7-1,3.5-1.5,4.6c-0.7,1.6-2.5,3.5-4.7,3.9c-2.8,0.5-6,0.6-9.1,1c-3.1,0.3-6.2,0.7-9.1,0.9
		c0.4-1.4,0.8-2.8,1.3-4.1c5.4-0.6,10.8-1.1,16.1-1.7c0.7-2.8,1.8-5.6,2.4-8.3c-5.2,0.7-10.9,1.2-16.1,1.7
		C-24.1,127.1-23.7,125.6-23.2,124.3z"/>
	<path fill-rule="evenodd" clip-rule="evenodd" fill="#555555" d="M-27.7,130.9c3.2-0.3,6.4-0.7,9.6-1c-0.4,1.3-0.8,2.6-1.3,3.9
		c-3.2,0.3-6.4,0.7-9.7,1C-28.5,133.5-28.2,132.1-27.7,130.9z"/>
</g>
</svg>
