<?xml version="1.0" encoding="utf-8"?>
<!-- Generator: Adobe Illustrator 18.1.1, SVG Export Plug-In . SVG Version: 6.00 Build 0)  -->
<svg version="1.1"
	 id="svg2" xmlns:cc="http://creativecommons.org/ns#" xmlns:rdf="http://www.w3.org/1999/02/22-rdf-syntax-ns#" xmlns:dc="http://purl.org/dc/elements/1.1/" xmlns:inkscape="http://www.inkscape.org/namespaces/inkscape" xmlns:svg="http://www.w3.org/2000/svg" xmlns:sodipodi="http://sodipodi.sourceforge.net/DTD/sodipodi-0.dtd" sodipodi:docname="logo.svg" inkscape:version="0.48.3.1 r9886"
	 xmlns="http://www.w3.org/2000/svg" xmlns:xlink="http://www.w3.org/1999/xlink" x="0px" y="0px" viewBox="350 -375 1000 1000"
	 enable-background="new 350 -375 1000 1000" xml:space="preserve">
<sodipodi:namedview  id="namedview10" pagecolor="#ffffff" bordercolor="#666666" borderopacity="1" inkscape:current-layer="svg2" inkscape:pageopacity="0" inkscape:window-maximized="1" inkscape:pageshadow="2" inkscape:window-height="681" inkscape:window-y="27" inkscape:window-width="1366" inkscape:window-x="0" inkscape:cy="500" inkscape:cx="-305.08475" inkscape:zoom="0.236" showgrid="false" guidetolerance="10" gridtolerance="10" objecttolerance="10">
	</sodipodi:namedview>
<g>
	<path fill-rule="evenodd" clip-rule="evenodd" fill="#1E75BB" d="M634.6-99.8c173.4,0,346.7,0,520.1,0
		c47.2,6.1,83.8,47.9,69.8,106.5c-8.6,36-25.5,79.7-40.1,123.9c-14.7,44.5-27.1,93-41.9,122.2c-20.8,41.2-72.1,89.1-134.4,94.3
		c-80.7,6.7-171.8,0-260.1,0c-89.1,0-176.6,1.5-258.3-1.7c11.4-37.4,23-74.8,36.7-110c153.5,0,307.2,0,460.8,0
		c20.6-76,52.1-150.3,69.8-223.4c-149,2.9-310.1,2.9-459,0C610.9-24.6,622.3-62.7,634.6-99.8z"/>
	<path fill-rule="evenodd" clip-rule="evenodd" fill="#1E75BB" d="M508.9,71.3c91.4,0,182.7,0,274.1,0
		c-12.4,34.7-24.1,70.2-36.7,104.7c-91.9,0-183.8,0-275.8,0C484.2,142,493.4,103.4,508.9,71.3z"/>
</g>
</svg>
