<?xml version="1.0" encoding="utf-8"?>
<!-- Generator: Adobe Illustrator 18.1.1, SVG Export Plug-In . SVG Version: 6.00 Build 0)  -->
<svg version="1.1" id="Layer_1" xmlns="http://www.w3.org/2000/svg" xmlns:xlink="http://www.w3.org/1999/xlink" x="0px" y="0px"
	 viewBox="-85 62 128 128" enable-background="new -85 62 128 128" xml:space="preserve">
<path fill="#555555" d="M30.7,146.8v-36.4c2.9-1.7,4.8-4.8,4.8-8.4c0-5.4-4.4-9.7-9.7-9.7c-1.3,0-2.6,0.3-3.8,0.8l-32.6-18.8
	c0.1-0.5,0.2-1.1,0.2-1.7c0-5.4-4.4-9.7-9.7-9.7c-5.4,0-9.7,4.4-9.7,9.7c0,0.6,0.1,1.1,0.2,1.7l-33.5,19.3h0
	c-1.4-0.8-3.1-1.3-4.8-1.3c-5.4,0-9.7,4.4-9.7,9.7c0,4.3,2.8,8,6.7,9.2v34.7c-3.9,1.3-6.7,5-6.7,9.2c0,5.4,4.4,9.7,9.7,9.7
	c2.5,0,4.7-1,6.5-2.5l31.8,18.3c0.6,4.8,4.7,8.4,9.6,8.4c4.9,0,9-3.6,9.6-8.4l30.7-17.7c1.6,1.2,3.6,1.9,5.7,1.9
	c5.4,0,9.7-4.4,9.7-9.7C35.6,151.6,33.6,148.5,30.7,146.8z M22.2,100.1c0.2-0.3,0.4-0.6,0.7-0.9h0c0.5-0.6,1.2-1,2-1.2c0,0,0,0,0,0
	c0.3-0.1,0.6-0.1,0.9-0.1c0.3,0,0.6,0,0.8,0.1c1.9,0.4,3.3,2,3.3,4c0,2.3-1.9,4.1-4.1,4.1c-0.4,0-0.8-0.1-1.1-0.2
	c-0.3-0.1-0.6-0.2-0.9-0.4c-0.9-0.5-1.6-1.4-1.9-2.4c-0.1-0.4-0.2-0.8-0.2-1.2C21.7,101.3,21.9,100.7,22.2,100.1z M17.3,97.3
	c-0.8,1.4-1.2,3-1.2,4.7c0,0.3,0,0.7,0.1,1l-12.7,7.3c-4.5-7-12-12-20.6-13.1V81.8c1.4-0.4,2.7-1.2,3.7-2.2L17.3,97.3z M-41.7,133.1
	c9.8,0,19.7,0,29.5,0c1.3-4.9,3.3-9.6,4.5-14.3c-9.5,0.2-19.9,0.2-29.4,0c0.8-2.3,1.6-4.8,2.3-7.2c11.1,0,22.2,0,33.3,0
	c3,0.4,5.4,3.1,4.5,6.8c-0.6,2.3-1.6,5.1-2.6,7.9c-0.9,2.9-1.7,6-2.7,7.8c-1.3,2.6-4.6,5.7-8.6,6c-5.2,0.4-11,0-16.7,0
	c-5.7,0-11.3,0.1-16.6-0.1C-43.3,137.7-42.6,135.3-41.7,133.1z M-45.3,129.3c0.9-2.2,1.5-4.6,2.5-6.7c5.9,0,11.7,0,17.6,0
	c-0.8,2.2-1.5,4.5-2.3,6.7C-33.5,129.3-39.4,129.3-45.3,129.3z M-24,70.9c0.6-1.4,2.1-2.4,3.8-2.4c1.7,0,3.1,1,3.7,2.4
	c0.3,0.5,0.4,1.1,0.4,1.7c0,1.1-0.4,2.1-1.1,2.8c-0.5,0.5-1,0.8-1.7,1.1c-0.4,0.1-0.9,0.2-1.4,0.2c-0.5,0-0.9-0.1-1.4-0.2
	c-0.6-0.2-1.2-0.6-1.6-1.1c-0.7-0.8-1.1-1.7-1.1-2.8C-24.3,72-24.2,71.4-24,70.9z M-26.9,79.6c1,1,2.3,1.8,3.7,2.3v15.3
	c-9.4,0.7-17.5,5.9-22.3,13.4l-12.9-7.5c0-0.3,0.1-0.6,0.1-1c0-1.4-0.3-2.7-0.8-3.9L-26.9,79.6z M-71.1,104.8
	c-0.7-0.7-1.1-1.7-1.1-2.8c0-1.1,0.4-2.1,1.1-2.8c0.8-0.8,1.8-1.3,3-1.3c0.4,0,0.8,0.1,1.1,0.2c0.7,0.2,1.3,0.5,1.7,1c0,0,0,0,0,0
	c0.5,0.5,0.9,1.2,1.1,1.9c0.1,0.3,0.1,0.7,0.1,1c0,1.1-0.4,2.1-1.1,2.8c-0.3,0.3-0.6,0.5-0.9,0.7c-0.6,0.4-1.3,0.6-2.1,0.6
	C-69.3,106.2-70.4,105.7-71.1,104.8z M-64.2,156.4L-64.2,156.4c-0.4,1.4-1.6,2.5-3,2.8c-0.3,0.1-0.6,0.1-0.9,0.1
	c-2.3,0-4.1-1.8-4.1-4.1c0-1.1,0.4-2.1,1.1-2.8c0.8-0.8,1.8-1.3,3-1.3c0.3,0,0.6,0,0.9,0.1c0.8,0.2,1.5,0.6,2.1,1.2
	c0.2,0.2,0.4,0.5,0.6,0.8c0.2,0.3,0.3,0.6,0.4,0.9c0.1,0.4,0.2,0.8,0.2,1.2C-64,155.6-64.1,156-64.2,156.4z M-65.1,145.9v-34.7h0
	c1.6-0.5,3.1-1.5,4.2-2.7l12.7,7.3c-1.2,3.2-1.8,6.6-1.8,10.1c0,4.8,1.2,9.4,3.3,13.4l-14.9,8.6C-62.6,147-63.8,146.4-65.1,145.9z
	 M-28.6,174.5l-30-17.3c0.1-0.7,0.2-1.3,0.2-2c0-0.7-0.1-1.4-0.2-2l15.2-8.8c1.1,1.3,2.2,2.5,3.5,3.6v0.3h0.3
	c4.5,3.8,10.2,6.2,16.4,6.7v15.2C-25.5,170.9-27.4,172.5-28.6,174.5z M-20.2,183.6c-2.3,0-4.1-1.9-4.1-4.1c0-0.8,0.2-1.5,0.6-2.1
	c0.1-0.3,0.3-0.5,0.5-0.7c0.8-0.8,1.8-1.3,3-1.3s2.2,0.5,3,1.3c0.2,0.2,0.4,0.5,0.5,0.7c0.4,0.6,0.6,1.3,0.6,2.1
	C-16.1,181.7-17.9,183.6-20.2,183.6z M-11.8,174.5c-1.2-2-3.1-3.6-5.4-4.4v-15.4c7.4-1,14-4.8,18.5-10.2l15,8.7
	c-0.1,0.6-0.2,1.3-0.2,2c0,1,0.2,2,0.4,3L-11.8,174.5z M19.3,148l-14.7-8.5c2.1-4,3.3-8.6,3.3-13.5c0-3.6-0.7-7-1.9-10.2l12.5-7.2
	c1.5,1.7,3.6,2.9,6,3.1v33.8C22.7,145.8,20.8,146.6,19.3,148z M28.8,158L28.8,158L28.8,158c-0.5,0.5-1.2,1-2,1.1c0,0,0,0,0,0
	c-0.3,0.1-0.7,0.1-1,0.1c-1.8,0-3.4-1.2-3.9-2.9v0c-0.1-0.4-0.2-0.8-0.2-1.2v0c0-1.9,1.3-3.5,3-3.9l0.2-0.1c0.3-0.1,0.6-0.1,0.9-0.1
	c2.3,0,4.1,1.8,4.1,4.1C30,156.3,29.5,157.3,28.8,158z"/>
</svg>
