<?xml version="1.0" encoding="utf-8"?>
<!-- Generator: Adobe Illustrator 18.1.1, SVG Export Plug-In . SVG Version: 6.00 Build 0)  -->
<svg version="1.1" id="Layer_1" xmlns="http://www.w3.org/2000/svg" xmlns:xlink="http://www.w3.org/1999/xlink" x="0px" y="0px"
	 viewBox="-85 76.6 128 99.4" enable-background="new -85 76.6 128 99.4" xml:space="preserve">
<path id="path9668" opacity="0.3" fill="#555555" enable-background="new    " d="M30.8,90H6.5v-5.2h24.3V90z M30.8,165.6H-72.8
	V97.3H30.8V165.6L30.8,165.6z M-70.2,84.2c1.8,0,3.3,1.5,3.3,3.3c0,1.8-1.5,3.3-3.3,3.3c-1.8,0-3.3-1.5-3.3-3.3
	C-73.5,85.7-72,84.2-70.2,84.2 M-59.5,84.2c1.8,0,3.3,1.5,3.3,3.3c0,1.8-1.5,3.3-3.3,3.3c-1.8,0-3.3-1.5-3.3-3.3
	C-62.8,85.7-61.3,84.2-59.5,84.2 M-48.4,84.2c1.8,0,3.3,1.5,3.3,3.2c0,1.8-1.5,3.3-3.3,3.3c-1.8,0-3.2-1.5-3.2-3.3
	C-51.6,85.7-50.2,84.2-48.4,84.2 M36.7,76.6h-114c-3.3,0-5.9,1.2-5.9,4.4v89.1c0,3.3,2.7,5.9,5.9,5.9h114c3.3,0,4.4-2.7,4.4-5.9V81
	C41.2,77.7,40,76.6,36.7,76.6"/>
<g opacity="0.5" enable-background="new    ">
	<path opacity="0.4" fill-rule="evenodd" clip-rule="evenodd" fill="#555555" d="M-1.4,111.9c-11.1,0-22.2,0-33.3,0
		c-0.8,2.4-1.5,4.8-2.3,7.2c9.5,0.2,19.9,0.2,29.4,0c-1.1,4.7-3.2,9.4-4.5,14.3c-9.8,0-19.7,0-29.5,0c-0.9,2.3-1.6,4.6-2.4,7
		c5.2,0.2,10.8,0.1,16.6,0.1c5.7,0,11.5,0.4,16.7,0c4-0.3,7.3-3.4,8.6-6c0.9-1.9,1.7-5,2.7-7.8c0.9-2.8,2-5.6,2.6-7.9
		C4,114.9,1.6,112.3-1.4,111.9z"/>
	<path opacity="0.4" fill-rule="evenodd" clip-rule="evenodd" fill="#555555" d="M-25.2,122.8c-5.9,0-11.7,0-17.6,0
		c-1,2.1-1.6,4.5-2.5,6.7c5.9,0,11.8,0,17.7,0C-26.8,127.3-26,125-25.2,122.8z"/>
</g>
</svg>
