<?xml version="1.0" encoding="utf-8"?>
<!-- Generator: Adobe Illustrator 18.1.1, SVG Export Plug-In . SVG Version: 6.00 Build 0)  -->
<svg version="1.1" id="Layer_1" xmlns="http://www.w3.org/2000/svg" xmlns:xlink="http://www.w3.org/1999/xlink" x="0px" y="0px"
	 viewBox="-85 62 128 128" enable-background="new -85 62 128 128" xml:space="preserve">
<g id="g9620" transform="translate(729.1304,330.5859)" opacity="0.3">
	<path id="path9622" fill="#B3B3B3" d="M-771.7-179.5l-9.4,3.5l3.4-8.6l-31.6,18.3l13.3,0.6l-18,20l26.5-11.6l-2.1,12.6l22-28.2
		l-10.2,1.4L-771.7-179.5z"/>
</g>
<g opacity="0.3">
	<path fill-rule="evenodd" clip-rule="evenodd" fill="#B3B3B3" d="M20.9,104.9C16,100,11,95,6.1,90.1c-1.4,0.7-2.8,1.5-4.2,2.1
		c4.2,4.3,8.8,8.9,13.1,13.1c-2.6,1.6-5.6,2.8-8.4,4.4c-4.4-4.4-8.8-8.8-13.1-13.1c-1.4,0.6-2.8,1.3-4.2,2.1
		c2.2,2.4,4.8,4.9,7.3,7.4c2.5,2.5,4.9,5.3,7.4,7.4c1.9,1.6,4.8,1.7,6.5,1.1c1.3-0.4,3-1.4,4.7-2.3c1.7-0.8,3.4-1.6,4.7-2.4
		C21.9,108.7,22.1,106.4,20.9,104.9z"/>
	<path fill-rule="evenodd" clip-rule="evenodd" fill="#B3B3B3" d="M5.4,99.2c-2.6-2.6-5.2-5.2-7.8-7.8c-1.4,0.5-2.7,1.3-4.1,1.9
		c2.6,2.6,5.2,5.2,7.9,7.9C2.7,100.5,4.1,99.8,5.4,99.2z"/>
</g>
<path opacity="0.3" fill="#B3B3B3" d="M42,66.5c-39.5-5.6-67.3,35.8-67.3,35.8C-49,99.7-64.2,125-65.9,132.7
	c15.2-10.2,27.8-8.5,27.8-8.5l-6.7,13l15.9,16.1l13-6.6c0,0,3.7,10.6-6.5,25.8c7.8-1.7,31.1-15,28.4-38.6
	C6.1,133.9,50.2,105.7,42,66.5z M-6.9,115.3c-7-7-7-18.4,0-25.4c7-7,18.4-7,25.4,0s7,18.4,0,25.4C11.5,122.3,0.1,122.3-6.9,115.3z"
	/>
</svg>
