<?xml version="1.0" encoding="utf-8"?>
<!-- Generator: Adobe Illustrator 18.1.1, SVG Export Plug-In . SVG Version: 6.00 Build 0)  -->
<svg version="1.1" id="Layer_1" xmlns="http://www.w3.org/2000/svg" xmlns:xlink="http://www.w3.org/1999/xlink" x="0px" y="0px"
	 viewBox="-85 62 128 128" enable-background="new -85 62 128 128" xml:space="preserve">
<g id="g8932" transform="translate(891.4009,221.832)" opacity="0.5">
	<path id="path8934" fill="#F2F2F2" d="M-853.6-81c0,2.3-1.9,4.3-4.3,4.3h0h-0.6h-2h-0.4h-2.2h-5h-25.4c-2.4,0-4.3-1.9-4.3-4.3v-2.8
		v-3.1v-7.3c0-2.4,1.9-4.3,4.3-4.3h25.4h5h2.2h0.4h2h0.6h0c1.8,0,3.2-0.3,4.3-0.7v12.3v3.1V-81z M-853.6-107.2v2.4c0,0,0,0-0.1,0
		c-0.9,0.4-2.1,1.1-4.2,1.1v-7.6h0.2C-855.4-111.3-853.6-109.5-853.6-107.2 M-960-151.1h85.7c6.2,0,11.2,5,11.2,11.2v4
		c-2.9-2.7-6.9-4.5-11.2-4.5H-960c-6.1,0-8.9-2.3-10.3-3.9C-968.5-148.3-964.6-151.1-960-151.1 M-863.1-51.8c0,6.2-5,11.2-11.2,11.2
		h-5.5H-960c-6.2,0-11.2-5-11.2-11.2v-4v-3.9v-78.5c2.4,1.6,5.9,3,11.2,3h80.1h5.6c6.2,0,11.2,5,11.2,11.2v7.7v2.6v2.6v7.4h-5h-25.4
		c-1.6,0-3,0.4-4.3,1c-1,0.5-1.8,1.2-2.6,1.9c-1.6,1.7-2.6,4-2.6,6.5v2V-81c0,5.2,4.2,9.4,9.5,9.4h25.4h5v11.9v3.9L-863.1-51.8
		L-863.1-51.8z M-857.7-116.4h-0.2v-7.5v-15.9c0-9-7.3-16.3-16.3-16.3H-960c-6.5,0-12.2,3.9-14.8,9.4c-1,2.1-1.5,4.4-1.5,6.9v72.2
		v15.9c0,9,7.3,16.3,16.3,16.3h85.7c9,0,16.3-7.3,16.3-16.3v-15.9v-3.9c5.2,0,9.4-4.3,9.4-9.4v-11.3v-8.9v-6.1
		C-848.5-112.3-852.6-116.4-857.7-116.4"/>
</g>
<g id="g8936" transform="translate(874.4312,225.8516)" opacity="0.5">
	<path id="path8938" fill="#F2F2F2" d="M-864.7-91.7c0,0.9-0.4,1.7-0.9,2.3c-0.6,0.6-1.4,1-2.3,1c-0.9,0-1.7-0.4-2.3-1
		c-0.6-0.6-0.9-1.4-0.9-2.3c0-0.1,0-0.2,0-0.3c0.2-1.6,1.6-2.9,3.2-2.9c1.7,0,3.1,1.3,3.2,2.9C-864.7-91.9-864.7-91.8-864.7-91.7
		 M-867.9-98.6c-3.7,0-6.8,2.9-6.9,6.6c0,0.1,0,0.2,0,0.3c0,0.8,0.1,1.6,0.4,2.3c0.3,1,0.9,1.8,1.6,2.6c1.3,1.3,3,2.1,5,2.1
		c2,0,3.7-0.8,5-2.1c0.7-0.7,1.3-1.6,1.6-2.6c0.2-0.7,0.4-1.5,0.4-2.3c0-0.1,0-0.2,0-0.3C-861.1-95.7-864.2-98.6-867.9-98.6"/>
</g>
<g>
	<path fill-rule="evenodd" clip-rule="evenodd" fill="#F2F2F2" d="M-28.1,120.7c-11.1,0-22.2,0-33.3,0c-0.8,2.4-1.5,4.8-2.3,7.2
		c9.5,0.2,19.9,0.2,29.4,0c-1.1,4.7-3.2,9.4-4.5,14.3c-9.8,0-19.7,0-29.5,0c-0.9,2.3-1.6,4.6-2.4,7c5.2,0.2,10.8,0.1,16.6,0.1
		c5.7,0,11.5,0.4,16.7,0c4-0.3,7.3-3.4,8.6-6c0.9-1.9,1.7-5,2.7-7.8c0.9-2.8,2-5.6,2.6-7.9C-22.8,123.8-25.1,121.1-28.1,120.7z"/>
	<path fill-rule="evenodd" clip-rule="evenodd" fill="#F2F2F2" d="M-52,131.7c-5.9,0-11.7,0-17.6,0c-1,2.1-1.6,4.5-2.5,6.7
		c5.9,0,11.8,0,17.7,0C-53.5,136.2-52.8,133.9-52,131.7z"/>
</g>
</svg>
